<?xml version="1.0" encoding="UTF-8" standalone="no"?>
<!-- Created with Inkscape (http://www.inkscape.org/) -->

<svg
   xmlns:dc="http://purl.org/dc/elements/1.1/"
   xmlns:cc="http://creativecommons.org/ns#"
   xmlns:rdf="http://www.w3.org/1999/02/22-rdf-syntax-ns#"
   xmlns:svg="http://www.w3.org/2000/svg"
   xmlns="http://www.w3.org/2000/svg"
   xmlns:sodipodi="http://sodipodi.sourceforge.net/DTD/sodipodi-0.dtd"
   xmlns:inkscape="http://www.inkscape.org/namespaces/inkscape"
   width="81.357193mm"
   height="22.596853mm"
   viewBox="0 0 288.27352 80.06759"
   id="svg2"
   version="1.1"
   inkscape:version="0.91 r13725"
   sodipodi:docname="math_img.svg">
  <sodipodi:namedview
     id="base"
     pagecolor="#ffffff"
     bordercolor="#666666"
     borderopacity="1.0"
     inkscape:pageopacity="0.0"
     inkscape:pageshadow="2"
     inkscape:zoom="0.98994949"
     inkscape:cx="129.15167"
     inkscape:cy="-259.32162"
     inkscape:document-units="px"
     inkscape:current-layer="layer1"
     showgrid="false"
     inkscape:window-width="960"
     inkscape:window-height="1023"
     inkscape:window-x="0"
     inkscape:window-y="27"
     inkscape:window-maximized="0"
     fit-margin-top="0"
     fit-margin-left="0"
     fit-margin-right="0"
     fit-margin-bottom="0" />
  <defs
     id="defs4" />
  <metadata
     id="metadata7">
    <rdf:RDF>
      <cc:Work
         rdf:about="">
        <dc:format>image/svg+xml</dc:format>
        <dc:type
           rdf:resource="http://purl.org/dc/dcmitype/StillImage" />
        <dc:title></dc:title>
      </cc:Work>
    </rdf:RDF>
  </metadata>
  <g
     id="layer1"
     inkscape:groupmode="layer"
     inkscape:label="Layer 1"
     transform="translate(-131.56262,-24.415991)">
    <g
       transform="matrix(0.32764055,0,0,0.2996774,-95.7562,-84.319476)"
       id="g3606">
      <g
         style="font-style:normal;font-variant:normal;font-weight:normal;font-stretch:normal;letter-spacing:normal;word-spacing:normal;text-anchor:start;fill:none;fill-opacity:1;fill-rule:evenodd;stroke:#000000;stroke-linecap:butt;stroke-linejoin:miter;stroke-miterlimit:10.43299961;stroke-dasharray:none;stroke-dashoffset:0;stroke-opacity:1"
         id="g3608"
         transform="matrix(1.0629921,0,0,-1.0629921,-186.02362,789.27165)"
         xml:space="preserve"
         stroke-miterlimit="10.433"
         font-style="normal"
         font-variant="normal"
         font-weight="normal"
         font-stretch="normal"
         font-size-adjust="none"
         letter-spacing="normal"
         word-spacing="normal"><path
           style="fill:#000000;stroke-width:0"
           inkscape:connector-curvature="0"
           d="m 854.84,361.7 -0.01,0.35 -0.02,0.35 -0.04,0.33 -0.06,0.34 -0.06,0.33 -0.09,0.32 -0.1,0.32 -0.11,0.31 -0.13,0.3 -0.14,0.29 -0.15,0.29 -0.17,0.27 -0.18,0.27 -0.19,0.26 -0.2,0.25 -0.22,0.24 -0.23,0.22 -0.24,0.22 -0.25,0.2 -0.26,0.2 -0.28,0.17 -0.28,0.17 -0.29,0.15 -0.31,0.14 -0.31,0.12 -0.32,0.11 -0.34,0.09 -0.34,0.08 -0.35,0.06 -0.36,0.05 -0.36,0.02 -0.38,0.01 c -2.89,0 -4.28,-0.8 -6.03,-2.09 -2.73,-1.99 -5.48,-6.83 -6.42,-10.61 l -7.92,-31.64 c -0.06,-0.19 0.19,-0.5 0.59,-0.5 0.39,0 0.55,0.11 0.6,0.25 l 3.48,13.75 c 0.95,-2.99 3.14,-4.83 6.78,-4.83 l -0.15,1.09 c -3.78,0 -5.68,2.89 -5.68,6.44 0,0.49 0,1.23 0.25,2.19 l 3.19,12.61 c 1.09,4.28 4.69,12.2 10.66,12.2 2.89,0 4.64,-1.55 4.64,-4.53 l 0,0 c 0,-3.5 -1.89,-7.08 -4.49,-8.63 -1.34,0.5 -2.34,0.6 -3.84,0.6 -1.05,0 -3.83,0.05 -3.83,-1.6 -0.05,-1.39 2.53,-1.23 3.44,-1.23 l 0.14,1.09 c -0.69,0 -1.69,-0.06 -2.19,0.19 0.11,0.5 1.89,0.41 2.44,0.41 1.05,0 1.5,0 2.14,-0.25 l 0,0 c -0.64,-0.25 -1.19,-0.35 -2.39,-0.35 L 843.34,352 c 1.84,0 2.59,0.05 4.08,0.64 1.89,-1.8 2.14,-3.34 2.2,-5.62 0.1,-2.9 -1.11,-6.63 -2.5,-8.58 -1.94,-2.69 -5.28,-4.49 -8.12,-4.49 l 0.15,-1.09 c 3.64,0 7.38,1.75 9.61,3.94 2.39,2.29 4,5.48 4,9.17 0,3.58 -1.84,6.17 -3.64,7.42 2.89,1.64 5.72,4.73 5.72,8.31 z"
           id="path3610" /><path
           style="fill:#000000;stroke-width:0"
           inkscape:connector-curvature="0"
           d="m 898.4,365.5 0,0.11 -0.01,0.1 -0.02,0.09 -0.02,0.1 -0.02,0.09 -0.03,0.08 -0.03,0.09 -0.04,0.08 -0.04,0.07 -0.05,0.08 -0.05,0.07 -0.06,0.07 -0.06,0.06 -0.06,0.06 -0.07,0.06 -0.07,0.06 -0.07,0.05 -0.08,0.05 -0.16,0.09 -0.17,0.08 -0.19,0.08 -0.19,0.06 -0.2,0.06 -0.21,0.04 -0.22,0.04 -0.22,0.04 -0.22,0.03 -0.22,0.02 -0.23,0.02 -0.22,0.01 -0.23,0.01 -0.22,0 -0.22,0.01 -0.21,0 -0.21,-0.01 -0.2,0 -0.2,0 -0.18,-0.01 -0.18,0 -0.16,0 -0.15,0 -18.78,0 c -2.49,0 -6.93,-1.44 -7.72,-4.14 0.09,-0.3 0.2,-0.35 0.5,-0.35 1.09,0 2.59,0.89 3.28,1.64 1.55,0 3.05,0.11 4.59,0.11 l 3.08,0 c 0,0 -0.2,-0.9 -0.2,-0.95 -1.94,-9.11 -4.88,-16.84 -7.06,-21.72 -0.3,-0.65 -3,-6.87 -3.69,-7.47 -2.21,0 -3.85,1.19 -4.74,3.13 -0.15,0.31 -0.15,0.5 -0.5,0.5 -1.14,0 -3.89,-1.6 -3.89,-2.44 0,-0.09 0.05,-0.2 0.11,-0.3 0.89,-2.34 3.13,-3.68 5.58,-3.68 2.53,0 5.47,1.84 7.06,3.68 1.66,1.89 4.94,10.07 6.24,13.05 l 9.61,0 c -0.05,-0.05 -0.1,-0.09 -0.1,-0.14 0,-0.2 0.3,-0.36 0.5,-0.36 1.1,0 3.94,1.41 3.94,2.95 0,0.35 -0.34,0.3 -0.95,0.3 l -11.96,0 c 1.3,4.48 2.99,8.86 3.89,13.45 l 6.58,0 c 1.24,0 4.74,0.25 5.63,-0.86 0.09,-0.29 -0.05,-0.79 0.09,-1.04 0.11,-0.1 0.25,-0.14 0.41,-0.14 1.19,0 3.89,1.5 3.89,2.84 z"
           id="path3612" /><polygon
           style="fill:#000000;stroke-width:0"
           points="910.42,368.73 910.42,370.72 903.59,370.72 903.59,320.91 910.42,320.91 910.42,322.89 905.59,322.89 905.59,368.73 "
           id="polygon3614" /><path
           style="fill:#000000;stroke-width:0"
           inkscape:connector-curvature="0"
           d="m 933.28,366.73 0,0.01 0,0.01 0,0 0,0.01 0,0.01 0,0.01 0.01,0 0,0.01 0,0.02 0.01,0.03 0,0.02 0.01,0.02 0,0.03 0.01,0.03 0,0.02 0.01,0.03 0.01,0.03 0,0.03 0.02,0.06 0.01,0.06 0.01,0.03 0.01,0.02 0.01,0.03 0,0.03 0.01,0.02 0,0.02 0.01,0.03 0,0.01 0.01,0.01 0,0.01 0,0.01 0,0.01 0,0.01 0,0 0.01,0.01 0,0 0,0.01 0,0 0,0.01 0,0 c 0,0.04 0,0.5 -0.6,0.5 -0.5,0 -0.54,-0.16 -0.75,-1 l -2.89,-11.5 c -7.92,-0.25 -15.25,-6.88 -15.25,-13.66 0,-4.73 3.49,-8.67 9.57,-9.01 l 0.25,1.09 c -2.99,0.14 -6.58,1.89 -6.58,6.87 0,5.99 4.29,12.96 11.72,13.6 l -5.14,-20.47 -0.25,-1.09 c -0.4,-1.55 -0.74,-3.15 -1.14,-4.69 -0.6,-2.35 -1.1,-4.24 -1.1,-4.39 0,-0.49 0.34,-0.55 0.6,-0.55 0.24,0 0.35,0.06 0.5,0.2 0.09,0.1 0.4,1.3 0.54,2 l 1.89,7.43 0.25,1.09 5.14,20.47 c 3.78,-0.19 6.63,-2.49 6.63,-6.88 0,-5.87 -4.28,-13 -11.77,-13.59 l -0.25,-1.09 c 8.03,0.25 15.25,6.96 15.25,13.64 0,3.93 -2.64,8.53 -9.56,9.03 z"
           id="path3616" /><polygon
           style="fill:#000000;stroke-width:0"
           points="947.07,322.89 942.25,322.89 942.25,320.91 949.07,320.91 949.07,370.72 942.25,370.72 942.25,368.73 947.07,368.73 "
           id="polygon3618" /><path
           style="fill:#000000;stroke-width:0"
           inkscape:connector-curvature="0"
           d="m 1003.2,349.66 0.2,0 0.1,0 0.2,0 0,0.01 0.1,0 0.1,0.01 0,0.01 0.1,0.01 0.1,0.01 0,0.01 0.1,0.02 0.1,0.02 0,0.02 0.1,0.02 0.1,0.03 0,0.03 0.1,0.04 0,0.03 0.1,0.05 0,0.04 0,0.05 0.1,0.03 0,0.03 0,0.02 0,0.03 0,0.04 0,0.03 0.1,0.03 0,0.04 0,0.03 0,0.04 0,0.04 0,0.04 0,0.04 0,0.04 0,0.05 0,0.04 c 0,1 -0.9,1 -1.6,1 l -29.87,0 c -0.71,0 -1.65,0 -1.65,-1 0,-0.98 0.94,-0.98 1.69,-0.98 z"
           id="path3620" /><path
           style="fill:#000000;stroke-width:0"
           inkscape:connector-curvature="0"
           d="m 1003.3,339.98 0,0 0.1,0 0.1,0.01 0.2,0 0,0 0.1,0.01 0.1,0.01 0.1,0 0,0.01 0.1,0.02 0.1,0.01 0,0.02 0.1,0.02 0,0.02 0.1,0.02 0.1,0.03 0,0.03 0.1,0.04 0,0.04 0.1,0.04 0,0.05 0,0.02 0.1,0.03 0,0.02 0,0.03 0,0.03 0,0.03 0,0.03 0,0.03 0.1,0.04 0,0.03 0,0.04 0,0.04 0,0.04 0,0.04 0,0.04 0,0.04 0,0.05 0,0.04 c 0,1 -0.9,1 -1.7,1 l -29.73,0 c -0.75,0 -1.69,0 -1.69,-1 0,-1 0.94,-1 1.65,-1 z"
           id="path3622" /><path
           style="fill:#000000;stroke-width:0"
           inkscape:connector-curvature="0"
           d="m 1026.8,292.69 0.1,0.01 0.1,0.02 0.2,0.03 0.1,0.03 0.1,0.03 0.2,0.04 0.1,0.05 0.1,0.05 0.1,0.05 0.1,0.06 0.1,0.06 0.1,0.07 0.1,0.07 0.1,0.07 0.1,0.08 0.1,0.08 0,0.09 0.1,0.08 0.1,0.09 0,0.1 0.1,0.09 0,0.1 0.1,0.11 0,0.1 0.1,0.11 0,0.1 0,0.11 0,0.12 0.1,0.11 0,0.11 0,0.12 0,0.11 c 0,1.65 -1.3,2.44 -2.4,2.44 -1.2,0 -2.4,-0.75 -2.4,-2.48 0,-2.55 2.4,-4.64 5.5,-4.64 7.5,0 10.4,11.65 13.9,26.11 3.9,15.73 7.1,31.64 9.8,47.62 1.8,10.61 3.7,20.58 5.4,27 0.6,2.45 2.3,8.88 4.2,8.88 1.6,0 2.8,-0.96 3,-1.14 -1.6,-0.11 -2.5,-1.21 -2.5,-2.46 0,-1.64 1.2,-2.43 2.4,-2.43 1.2,0 2.4,0.75 2.4,2.48 0,2.7 -2.6,4.64 -5.4,4.64 -3.8,0 -6.6,-5.44 -9.3,-15.59 -0.2,-0.55 -6.9,-25.57 -12.4,-58.14 -1.3,-7.63 -2.7,-15.94 -4.4,-22.88 -0.9,-3.62 -3.2,-13 -7.2,-13 -1.8,0 -3,1.14 -3,1.14 z"
           id="path3624" /><path
           style="fill:#000000;stroke-width:0"
           inkscape:connector-curvature="0"
           d="m 1098.6,336.09 0,-3.28 7.3,0.55 0,1.55 c -3.5,0 -3.9,0.34 -3.9,2.78 l 0,30.25 -7.2,-0.55 0,-1.55 c 3.5,0 3.9,-0.34 3.9,-2.79 l 0,-10.75 c -1.4,1.78 -3.6,3.08 -6.3,3.08 l 0.2,-1.1 c 1.8,0 3.9,-0.75 5.4,-2.98 0.6,-0.85 0.6,-0.96 0.6,-1.85 l 0,0 0,-10.22 c 0,-0.89 0,-1 -0.6,-1.84 -1.5,-2.39 -3.7,-3.48 -5.9,-3.48 -2.2,0 -4,1.29 -5.2,3.18 -1.3,2.05 -1.4,4.89 -1.4,6.93 0,1.84 0.1,4.84 1.5,7.07 1.1,1.55 2.9,3.19 5.6,3.19 l -0.2,1.1 c -5.8,0 -11.1,-4.88 -11.1,-11.3 0,-6.33 4.9,-11.27 10.6,-11.27 3.2,0 5.4,1.69 6.7,3.28 z"
           id="path3626" /><path
           style="fill:#000000;stroke-width:0"
           inkscape:connector-curvature="0"
           d="m 1124.9,360.34 -1.1,0 c -0.1,-0.76 -0.5,-2.82 -0.9,-3.17 -0.3,-0.2 -3,-0.2 -3.5,-0.2 l -6.4,0 c 3.7,3.23 4.9,4.2 7,5.84 2.6,2.07 4.9,4.22 4.9,7.53 0,4.22 -3.6,6.8 -8.1,6.8 -4.3,0 -7.2,-3.03 -7.2,-6.23 0,-1.79 1.5,-1.96 1.8,-1.96 0.8,0 1.8,0.6 1.8,1.85 0,0.62 -0.2,1.84 -2,1.84 1.1,2.47 3.4,3.24 5.1,3.24 3.5,0 5.3,-2.71 5.3,-5.54 0,-3.03 -2.2,-5.43 -3.3,-6.68 l -8.4,-8.3 c -0.3,-0.31 -0.3,-0.39 -0.3,-1.36 l 14.3,0 z"
           id="path3628" /><path
           style="fill:#000000;stroke-width:0"
           inkscape:connector-curvature="0"
           d="m 1134.1,336.3 0,-0.07 -0.1,-0.08 0,-0.07 0,-0.08 0,-0.16 -0.1,-0.16 0,-0.16 0,-0.16 -0.1,-0.16 0,-0.16 0,-0.08 0,-0.07 -0.1,-0.07 0,-0.07 0,-0.07 0,-0.07 0,-0.06 0,-0.06 0,-0.06 -0.1,-0.05 0,-0.05 0,-0.04 0,-0.04 0,-0.04 0,-0.03 0,-0.02 c 0,-0.89 0.7,-1.35 1.5,-1.35 0.6,0 1.5,0.39 1.8,1.39 0.1,0.21 1.8,6.99 2,7.88 0.4,1.64 1.3,5.12 1.6,6.48 0.2,0.64 1.6,2.99 2.8,4.08 0.4,0.34 1.8,1.64 4,1.64 1.3,0 2,-0.59 2,-0.59 -1.4,-0.25 -2.5,-1.46 -2.5,-2.74 0,-0.79 0.5,-1.75 1.9,-1.75 1.3,0 2.7,1.14 2.7,2.94 0,1.75 -1.6,3.24 -4.1,3.24 -3.3,0 -5.5,-2.44 -6.4,-3.83 -0.4,2.23 -2.2,3.83 -4.6,3.83 -2.2,0 -3.2,-1.94 -3.6,-2.83 -0.9,-1.71 -1.6,-4.69 -1.6,-4.85 0,-0.5 0.5,-0.5 0.6,-0.5 0.5,0 0.6,0.07 0.9,1.16 0.8,3.53 1.8,5.92 3.6,5.92 0.9,0 1.6,-0.39 1.6,-2.28 0,-1.05 -0.2,-1.61 -0.8,-4.19 z"
           id="path3630" /><path
           style="fill:#000000;stroke-width:0"
           inkscape:connector-curvature="0"
           d="m 1205.1,395.33 0.3,0.4 0.2,0.4 0.2,0.38 0.3,0.37 0.1,0.18 0.1,0.17 0.2,0.17 0.1,0.16 0.2,0.16 0.1,0.16 0.2,0.15 0.1,0.14 0.2,0.14 0.1,0.13 0.2,0.13 0.2,0.12 0.2,0.11 0.2,0.11 0.2,0.1 0.2,0.09 0.2,0.09 0.2,0.08 0.3,0.07 0.2,0.06 0.3,0.05 0.2,0.05 0.3,0.04 0.3,0.02 c 0.5,0.05 1,0.05 1,1 0,0.19 -0.2,0.55 -0.6,0.55 -1.2,0 -2.6,-0.16 -3.9,-0.16 -1.7,0 -3.5,0.16 -5.2,0.16 -0.3,0 -0.9,0 -0.9,-0.95 0,-0.55 0.4,-0.6 0.7,-0.6 1.2,-0.04 3,-0.45 3,-1.94 0,-0.54 -0.3,-0.95 -0.7,-1.65 l -13.4,-23.45 -1.9,24.7 c 0,1 -0.1,2.3 3.5,2.34 0.9,0 1.4,0 1.4,1 0,0.5 -0.6,0.55 -0.8,0.55 -2,0 -4.1,-0.16 -6.1,-0.16 -1.1,0 -4,0.16 -5.2,0.16 -0.3,0 -0.9,0 -0.9,-1 0,-0.55 0.5,-0.55 1.2,-0.55 2.2,0 2.5,-0.29 2.6,-1.25 l 0.3,-3.83 -12.6,-21.96 -1.9,25.25 c 0,0.59 0,1.75 3.8,1.79 0.5,0 1,0 1,1 0,0.55 -0.6,0.55 -0.7,0.55 -2,0 -4.1,-0.16 -6.1,-0.16 -1.7,0 -3.5,0.16 -5.2,0.16 -0.3,0 -0.9,0 -0.9,-0.95 0,-0.6 0.4,-0.6 1.2,-0.6 2.5,0 2.6,-0.45 2.7,-1.84 l 2.2,-30.44 c 0.1,-0.9 0.1,-1.3 0.8,-1.3 0.6,0 0.7,0.3 1.2,1.05 l 14.7,25.41 1.8,-25.16 c 0.1,-1.05 0.2,-1.3 0.8,-1.3 0.6,0 0.9,0.5 1.2,0.94 z"
           id="path3632" /><polyline
           style="fill:#000000;fill-rule:nonzero;stroke-width:0"
           points="1159,345 1213,345 1213,347.04 1159,347.04 "
           id="polyline3634" /><path
           style="fill:#000000;stroke-width:0"
           inkscape:connector-curvature="0"
           d="m 1180.4,303.12 5.3,5.13 c 7.7,6.87 10.7,9.56 10.7,14.55 0,5.68 -4.4,9.67 -10.5,9.67 -5.7,0 -9.3,-4.59 -9.3,-9.03 0,-2.78 2.5,-2.78 2.6,-2.78 0.9,0 2.6,0.59 2.6,2.64 0,1.29 -0.9,2.59 -2.6,2.59 -0.4,0 -0.5,0 -0.7,-0.05 1.2,3.24 3.8,5.08 6.7,5.08 4.6,0 6.7,-4.04 6.7,-8.12 0,-3.99 -2.5,-7.92 -5.2,-11.02 l -9.6,-10.66 c -0.5,-0.54 -0.5,-0.64 -0.5,-1.84 l 18.5,0 1.3,8.67 -1.2,0 c -0.3,-1.5 -0.6,-3.68 -1.1,-4.43 -0.3,-0.4 -3.6,-0.4 -4.7,-0.4 z"
           id="path3636" /><path
           style="fill:#000000;stroke-width:0"
           inkscape:connector-curvature="0"
           d="m 1227.4,368.94 0,0.16 0,0.17 0,0.16 -0.1,0.08 0,0.08 0,0.08 0,0.08 0,0.07 0,0.07 0,0.07 0,0.07 0,0.07 -0.1,0.06 0,0.06 0,0.06 0,0.06 -0.1,0.05 0,0.05 -0.1,0.05 0,0.04 -0.1,0.04 0,0.01 0,0.02 0,0.02 -0.1,0.01 0,0.01 0,0.02 -0.1,0.01 0,0.01 0,0.01 -0.1,0.01 0,0 -0.1,0.01 0,0 0,0.01 -0.1,0 0,0 c -1,0 -1,-0.89 -1,-1.78 l 0,-46.24 c 0,-0.9 0,-1.79 1,-1.79 1,0 1,0.89 1,1.79 z"
           id="path3638" /><path
           style="fill:#000000;stroke-width:0"
           inkscape:connector-curvature="0"
           d="m 1272.1,366.3 0,0.01 0,0.02 0,0.01 0,0.02 0,0.02 0.1,0.02 0,0.02 0,0.02 0,0.02 0,0.02 0,0.02 0,0.03 0,0.04 0.1,0.05 0,0.05 0,0.05 0,0.03 0,0.02 0,0.02 0,0.03 0,0.02 0,0.02 0,0.03 0,0.02 0,0.02 0,0.02 0,0.02 0,0.01 c 0,0.36 0,0.41 -1.1,0.41 l -34.4,0 c -1.2,0 -1.2,-0.05 -1.2,-0.41 0,-0.18 0.1,-0.54 0.2,-0.68 l 16.8,-33.64 c 0.4,-0.64 0.5,-0.94 1.4,-0.94 0.8,0 1,0.3 1.3,0.94 l 0.2,3.75 -13.7,27.39 27.3,0 -13.6,-27.39 -0.2,-3.75 z"
           id="path3640" /><path
           style="fill:#000000;stroke-width:0"
           inkscape:connector-curvature="0"
           d="m 1296.5,366.73 0,0.01 0,0.01 0,0 0,0.01 0,0.01 0,0.01 0,0 0,0.01 0,0.02 0,0.03 0,0.02 0,0.02 0.1,0.03 0,0.03 0,0.02 0,0.03 0,0.03 0,0.03 0,0.06 0,0.06 0,0.03 0,0.02 0,0.03 0,0.03 0,0.02 0.1,0.02 0,0.03 0,0.01 0,0.01 0,0.01 0,0.01 0,0.01 0,0.01 0,0 0,0.01 0,0 0,0.01 0,0 0,0.01 0,0 c 0,0.04 0,0.5 -0.6,0.5 -0.5,0 -0.6,-0.16 -0.8,-1 l -2.9,-11.5 c -7.9,-0.25 -15.2,-6.88 -15.2,-13.66 0,-4.73 3.5,-8.67 9.6,-9.01 l 0.2,1.09 c -3,0.14 -6.6,1.89 -6.6,6.87 0,5.99 4.3,12.96 11.8,13.6 l -5.2,-20.47 -0.2,-1.09 c -0.4,-1.55 -0.8,-3.15 -1.2,-4.69 -0.6,-2.35 -1.1,-4.24 -1.1,-4.39 0,-0.49 0.4,-0.55 0.6,-0.55 0.3,0 0.4,0.06 0.5,0.2 0.1,0.1 0.4,1.3 0.6,2 l 1.9,7.43 0.2,1.09 5.1,20.47 c 3.8,-0.19 6.7,-2.49 6.7,-6.88 0,-5.87 -4.3,-13 -11.8,-13.59 l -0.2,-1.09 c 8,0.25 15.2,6.96 15.2,13.64 0,3.93 -2.6,8.53 -9.6,9.03 z"
           id="path3642" /><path
           style="fill:#000000;stroke-width:0"
           inkscape:connector-curvature="0"
           d="m 1312.3,368.94 0,0.16 0,0.17 0,0.16 0,0.08 0,0.08 0,0.08 0,0.08 0,0.07 0,0.07 0,0.07 -0.1,0.07 0,0.07 0,0.06 0,0.06 -0.1,0.06 0,0.06 0,0.05 -0.1,0.05 0,0.05 -0.1,0.04 0,0.04 0,0.01 -0.1,0.02 0,0.02 0,0.01 0,0.01 -0.1,0.02 0,0.01 0,0.01 -0.1,0.01 0,0.01 -0.1,0 0,0.01 0,0 -0.1,0.01 0,0 -0.1,0 c -1,0 -1,-0.89 -1,-1.78 l 0,-46.24 c 0,-0.9 0,-1.79 1,-1.79 1,0 1,0.89 1,1.79 z"
           id="path3644" /><path
           style="fill:#000000;stroke-width:0"
           inkscape:connector-curvature="0"
           d="m 1335.8,360.34 -1.2,0 c -0.1,-0.76 -0.4,-2.82 -0.9,-3.17 -0.3,-0.2 -2.9,-0.2 -3.4,-0.2 l -6.5,0 c 3.7,3.23 4.9,4.2 7,5.84 2.6,2.07 5,4.22 5,7.53 0,4.22 -3.7,6.8 -8.2,6.8 -4.3,0 -7.2,-3.03 -7.2,-6.23 0,-1.79 1.5,-1.96 1.8,-1.96 0.9,0 1.9,0.6 1.9,1.85 0,0.62 -0.3,1.84 -2.1,1.84 1.1,2.47 3.5,3.24 5.1,3.24 3.5,0 5.3,-2.71 5.3,-5.54 0,-3.03 -2.1,-5.43 -3.3,-6.68 l -8.3,-8.3 c -0.4,-0.31 -0.4,-0.39 -0.4,-1.36 l 14.4,0 z"
           id="path3646" /><path
           style="fill:#000000;stroke-width:0"
           inkscape:connector-curvature="0"
           d="m 1372.1,344.81 13.9,0 c 0.7,0 1.6,0 1.6,1 0,1 -0.9,1 -1.6,1 l -13.9,0 0,13.96 c 0,0.68 0,1.64 -1,1.64 -1,0 -1,-0.96 -1,-1.64 l 0,-13.96 -14,0 c -0.7,0 -1.6,0 -1.6,-1 0,-1 0.9,-1 1.6,-1 l 14,0 0,-13.93 c 0,-0.71 0,-1.66 1,-1.66 1,0 1,0.95 1,1.66 z"
           id="path3648" /><path
           style="fill:#000000;stroke-width:0"
           inkscape:connector-curvature="0"
           d="m 1412.5,370.02 0,-0.08 -0.1,-0.07 0,-0.07 0,-0.08 0,-0.16 -0.1,-0.16 0,-0.16 0,-0.17 -0.1,-0.16 0,-0.15 0,-0.08 0,-0.07 -0.1,-0.08 0,-0.07 0,-0.06 0,-0.07 0,-0.06 0,-0.06 0,-0.06 -0.1,-0.05 0,-0.05 0,-0.04 0,-0.04 0,-0.04 0,-0.03 0,-0.02 c 0,-0.9 0.7,-1.35 1.4,-1.35 0.7,0 1.5,0.39 1.9,1.39 0.1,0.2 1.8,6.99 2,7.88 0.4,1.64 1.3,5.12 1.6,6.48 0.2,0.64 1.6,2.99 2.8,4.08 0.4,0.34 1.8,1.64 4,1.64 1.2,0 2,-0.59 2.1,-0.59 -1.5,-0.25 -2.6,-1.46 -2.6,-2.74 0,-0.79 0.5,-1.75 1.9,-1.75 1.3,0 2.7,1.14 2.7,2.94 0,1.75 -1.6,3.23 -4.1,3.23 -3.3,0 -5.5,-2.43 -6.4,-3.82 -0.4,2.23 -2.2,3.82 -4.5,3.82 -2.3,0 -3.3,-1.93 -3.7,-2.82 -0.9,-1.71 -1.6,-4.69 -1.6,-4.85 0,-0.5 0.5,-0.5 0.6,-0.5 0.5,0 0.6,0.06 0.9,1.16 0.8,3.53 1.8,5.92 3.6,5.92 0.8,0 1.6,-0.39 1.6,-2.28 0,-1.05 -0.2,-1.61 -0.8,-4.19 z"
           id="path3650" /><polyline
           style="fill:#000000;fill-rule:nonzero;stroke-width:0"
           points="1407,345 1432,345 1432,347.04 1407,347.04 "
           id="polyline3652" /><path
           style="fill:#000000;stroke-width:0"
           inkscape:connector-curvature="0"
           d="m 1413.8,303.12 5.3,5.13 c 7.8,6.87 10.8,9.56 10.8,14.55 0,5.68 -4.5,9.67 -10.6,9.67 -5.6,0 -9.3,-4.59 -9.3,-9.03 0,-2.78 2.5,-2.78 2.6,-2.78 0.9,0 2.6,0.59 2.6,2.64 0,1.29 -0.9,2.59 -2.6,2.59 -0.4,0 -0.5,0 -0.7,-0.05 1.2,3.24 3.9,5.08 6.7,5.08 4.6,0 6.7,-4.04 6.7,-8.12 0,-3.99 -2.5,-7.92 -5.2,-11.02 l -9.6,-10.66 c -0.5,-0.54 -0.5,-0.64 -0.5,-1.84 l 18.4,0 1.5,8.67 -1.3,0 c -0.2,-1.5 -0.6,-3.68 -1.1,-4.43 -0.3,-0.4 -3.6,-0.4 -4.7,-0.4 z"
           id="path3654" /><path
           style="fill:#000000;stroke-width:0"
           inkscape:connector-curvature="0"
           d="m 1460.2,366.73 0,0.01 0,0.01 0,0 0,0.01 0,0.01 0,0.01 0,0 0,0.01 0,0.02 0,0.03 0,0.02 0,0.02 0,0.03 0,0.03 0.1,0.02 0,0.03 0,0.03 0,0.03 0,0.06 0,0.06 0,0.03 0,0.02 0,0.03 0,0.03 0,0.02 0,0.02 0,0.03 0,0.01 0.1,0.02 0,0.01 0,0.01 0,0.01 0,0 0,0.01 0,0 0,0.01 0,0 0,0.01 0,0 c 0,0.04 0,0.5 -0.6,0.5 -0.5,0 -0.6,-0.16 -0.8,-1 l -2.9,-11.5 c -7.9,-0.25 -15.2,-6.88 -15.2,-13.66 0,-4.73 3.5,-8.67 9.5,-9.01 l 0.3,1.09 c -3,0.14 -6.6,1.89 -6.6,6.87 0,5.99 4.3,12.96 11.7,13.6 l -5.1,-20.47 -0.3,-1.09 c -0.3,-1.55 -0.7,-3.15 -1.1,-4.69 -0.6,-2.35 -1.1,-4.24 -1.1,-4.39 0,-0.49 0.4,-0.55 0.6,-0.55 0.3,0 0.4,0.06 0.5,0.2 0.1,0.1 0.4,1.3 0.5,2 l 1.9,7.43 0.3,1.09 5.1,20.47 c 3.8,-0.19 6.7,-2.49 6.7,-6.88 0,-5.87 -4.3,-13 -11.8,-13.59 l -0.3,-1.09 c 8.1,0.25 15.3,6.96 15.3,13.64 0,3.93 -2.7,8.53 -9.6,9.03 z"
           id="path3656" /><path
           style="fill:#000000;stroke-width:0"
           inkscape:connector-curvature="0"
           d="m 1485.7,360.34 -1.2,0 c -0.1,-0.76 -0.5,-2.82 -0.9,-3.17 -0.3,-0.2 -3,-0.2 -3.5,-0.2 l -6.4,0 c 3.7,3.23 4.9,4.2 7,5.84 2.6,2.07 5,4.22 5,7.53 0,4.22 -3.7,6.8 -8.2,6.8 -4.3,0 -7.2,-3.03 -7.2,-6.23 0,-1.79 1.5,-1.96 1.8,-1.96 0.8,0 1.9,0.6 1.9,1.85 0,0.62 -0.3,1.84 -2.1,1.84 1.1,2.47 3.5,3.24 5.1,3.24 3.5,0 5.3,-2.71 5.3,-5.54 0,-3.03 -2.2,-5.43 -3.3,-6.68 l -8.4,-8.3 c -0.3,-0.31 -0.3,-0.39 -0.3,-1.36 l 14.3,0 z"
           id="path3658" /><path
           style="fill:#000000;stroke-width:0"
           inkscape:connector-curvature="0"
           d="m 1521.8,344.81 13.9,0 c 0.7,0 1.7,0 1.7,1 0,1 -1,1 -1.7,1 l -13.9,0 0,13.96 c 0,0.68 0,1.64 -1,1.64 -1,0 -1,-0.96 -1,-1.64 l 0,-13.96 -13.9,0 c -0.7,0 -1.7,0 -1.7,-1 0,-1 1,-1 1.7,-1 l 13.9,0 0,-13.93 c 0,-0.71 0,-1.66 1,-1.66 1,0 1,0.95 1,1.66 z"
           id="path3660" /><path
           style="fill:#000000;stroke-width:0"
           inkscape:connector-curvature="0"
           d="m 1579.8,369.88 0.1,-0.19 0.1,-0.19 0,-0.18 0.1,-0.18 0.1,-0.17 0.1,-0.16 0.1,-0.16 0.1,-0.16 0.1,-0.15 0.1,-0.15 0.1,-0.14 0.1,-0.13 0.1,-0.13 0.2,-0.13 0.1,-0.11 0.2,-0.11 0.1,-0.11 0.2,-0.1 0.1,-0.09 0.2,-0.09 0.1,-0.08 0.2,-0.08 0.2,-0.06 0.2,-0.06 0.1,-0.06 0.2,-0.05 0.2,-0.04 0.2,-0.03 0.2,-0.03 0.2,-0.01 0.2,-0.02 0.2,0 c 1.7,0 2.9,1.14 3.7,2.74 0.8,1.79 1.4,4.84 1.4,4.93 0,0.5 -0.4,0.5 -0.6,0.5 -0.5,0 -0.5,-0.2 -0.6,-0.9 -0.7,-2.78 -1.7,-6.18 -3.8,-6.18 -1,0 -1.5,0.66 -1.5,2.3 0,1.1 0.6,3.44 1,5.17 l 1.4,5.39 c 0.1,0.75 0.6,2.64 0.8,3.4 0.3,1.14 0.8,3.03 0.8,3.32 0,0.91 -0.7,1.35 -1.5,1.35 -0.2,0 -1.5,-0.05 -1.9,-1.74 -1,-3.64 -3.2,-12.36 -3.8,-15 0,-0.2 -2,-4.19 -5.6,-4.19 -2.6,0 -3.1,2.26 -3.1,4.1 0,2.78 1.4,6.72 2.7,10.16 0.6,1.5 0.8,2.18 0.8,3.14 0,2.23 -1.6,4.07 -4.1,4.07 -4.7,0 -6.6,-7.21 -6.6,-7.67 0,-0.5 0.5,-0.5 0.6,-0.5 0.5,0 0.6,0.11 0.8,0.91 1.3,4.33 3.2,6.17 5.1,6.17 0.4,0 1.2,-0.05 1.2,-1.64 0,-1.2 -0.5,-2.64 -0.8,-3.39 -1.9,-4.94 -2.9,-8.02 -2.9,-10.45 0,-4.74 3.4,-5.99 6.1,-5.99 3.3,0 5.1,2.24 5.9,3.35 z"
           id="path3662" /><polyline
           style="fill:#000000;fill-rule:nonzero;stroke-width:0"
           points="1557,345 1595.8,345 1595.8,347.04 1557,347.04 "
           id="polyline3664" /><path
           style="fill:#000000;stroke-width:0"
           inkscape:connector-curvature="0"
           d="m 1571.9,307.5 0,-4.33 c 0,-1.79 -0.1,-2.34 -3.8,-2.34 l -1,0 0,-1.55 c 2,0.16 4.6,0.16 6.7,0.16 2.1,0 4.7,0 6.8,-0.16 l 0,1.55 -1.1,0 c -3.7,0 -3.8,0.55 -3.8,2.34 l 0,4.33 5,0 0,1.55 -5,0 0,22.67 c 0,1 0,1.3 -0.8,1.3 -0.4,0 -0.6,0 -1,-0.61 l -15.3,-23.36 1.4,0 12.2,18.57 0,-18.57 -12.2,0 -1.4,0 0,-1.55 z"
           id="path3666" /><path
           style="fill:#000000;stroke-width:0"
           inkscape:connector-curvature="0"
           d="m 1589.8,309.69 2,22.72 c 0,1.65 -1.4,2.54 -2.7,2.54 -1.3,0 -2.6,-0.89 -2.6,-2.54 l 1.9,-22.66 c 0.1,-0.75 0.1,-1.16 0.7,-1.16 0.5,0 0.7,0.25 0.7,1.1 z"
           id="path3668" /><path
           style="fill:#000000;stroke-width:0"
           inkscape:connector-curvature="0"
           d="m 1591.8,301.92 0,0.14 -0.1,0.13 0,0.13 0,0.13 0,0.12 -0.1,0.13 0,0.12 0,0.12 -0.1,0.12 -0.1,0.11 0,0.11 -0.1,0.11 -0.1,0.1 0,0.1 -0.1,0.1 -0.1,0.09 -0.1,0.09 -0.1,0.08 -0.1,0.08 -0.1,0.08 -0.1,0.07 -0.1,0.06 -0.1,0.06 -0.2,0.05 -0.1,0.05 -0.1,0.04 -0.1,0.04 -0.2,0.03 -0.1,0.02 -0.1,0.02 -0.1,0.01 -0.2,0 c -1.4,0 -2.6,-1.2 -2.6,-2.64 0,-1.44 1.2,-2.64 2.6,-2.64 1.5,0 2.7,1.2 2.7,2.64 z"
           id="path3670" /><path
           style="fill:#000000;stroke-width:0"
           inkscape:connector-curvature="0"
           d="m 1623.8,366.73 0,0.01 0,0.01 0,0 0,0.01 0,0.01 0,0.01 0,0 0,0.01 0,0.02 0,0.03 0,0.02 0,0.02 0,0.03 0,0.03 0,0.02 0,0.03 0,0.03 0,0.03 0,0.06 0.1,0.06 0,0.03 0,0.02 0,0.03 0,0.03 0,0.02 0,0.02 0,0.03 0,0.01 0,0.02 0,0.01 0,0.01 0,0.01 0,0 0,0.01 0,0 0,0.01 0,0 0,0.01 0,0 c 0,0.04 0,0.5 -0.6,0.5 -0.5,0 -0.5,-0.16 -0.7,-1 l -2.9,-11.5 c -7.9,-0.25 -15.3,-6.88 -15.3,-13.66 0,-4.73 3.5,-8.67 9.6,-9.01 l 0.2,1.09 c -2.9,0.14 -6.5,1.89 -6.5,6.87 0,5.99 4.3,12.96 11.7,13.6 l -5.2,-20.47 -0.2,-1.09 c -0.4,-1.55 -0.7,-3.15 -1.1,-4.69 -0.6,-2.35 -1.1,-4.24 -1.1,-4.39 0,-0.49 0.3,-0.55 0.6,-0.55 0.2,0 0.3,0.06 0.5,0.2 0,0.1 0.4,1.3 0.5,2 l 1.9,7.43 0.3,1.09 5.1,20.47 c 3.8,-0.19 6.6,-2.49 6.6,-6.88 0,-5.87 -4.3,-13 -11.7,-13.59 l -0.3,-1.09 c 8,0.25 15.3,6.96 15.3,13.64 0,3.93 -2.7,8.53 -9.6,9.03 z"
           id="path3672" /><path
           style="fill:#000000;stroke-width:0"
           inkscape:connector-curvature="0"
           d="m 1650.1,359.72 0,1.25 -3.9,0 0,15.55 c 0,0.71 0,0.96 -0.8,0.96 -0.4,0 -0.5,0 -0.9,-0.48 l -11.5,-16.03 0,-1.25 10.2,0 0.3,1.25 -9.2,0 9.2,12.75 0,-12.75 -0.3,-1.25 0,-2.86 c 0,-1.19 0,-1.61 -2.8,-1.61 l -0.9,0 0,-1.25 c 1.7,0.06 3.9,0.14 5.2,0.14 1.3,0 3.5,-0.08 5.3,-0.14 l 0,1.25 -1,0 c -2.8,0 -2.8,0.42 -2.8,1.61 l 0,2.86 z"
           id="path3674" /></g>    </g>
    <g
       id="g4006"
       transform="matrix(0.32164,0,0,0.29418897,-87.031773,-30.411563)">
      <g
         word-spacing="normal"
         letter-spacing="normal"
         font-size-adjust="none"
         font-stretch="normal"
         font-weight="normal"
         font-variant="normal"
         font-style="normal"
         stroke-miterlimit="10.433"
         xml:space="preserve"
         transform="matrix(1.0629921,0,0,-1.0629921,-186.02362,789.27165)"
         id="content"
         style="font-style:normal;font-variant:normal;font-weight:normal;font-stretch:normal;letter-spacing:normal;word-spacing:normal;text-anchor:start;fill:none;fill-opacity:1;fill-rule:evenodd;stroke:#000000;stroke-linecap:butt;stroke-linejoin:miter;stroke-miterlimit:10.43299961;stroke-dasharray:none;stroke-dashoffset:0;stroke-opacity:1"><path
           id="path4009"
           d="m 843.98,363.33 -0.05,0.29 -0.06,0.29 -0.07,0.28 -0.08,0.28 -0.08,0.28 -0.1,0.27 -0.11,0.27 -0.11,0.27 -0.13,0.25 -0.13,0.26 -0.15,0.24 -0.15,0.24 -0.17,0.23 -0.17,0.23 -0.18,0.21 -0.2,0.21 -0.2,0.2 -0.21,0.19 -0.22,0.18 -0.24,0.16 -0.24,0.16 -0.25,0.15 -0.27,0.13 -0.27,0.12 -0.29,0.11 -0.29,0.1 -0.31,0.08 -0.31,0.07 -0.33,0.06 -0.34,0.04 -0.35,0.02 -0.36,0.01 0,-1.1 c 5.44,0 5.53,-5.57 5.53,-6.57 0,-3.58 -3.18,-14.8 -10.86,-14.8 l 0,0 c -5.48,0 -5.48,5.14 -5.48,5.62 0,1.36 1.25,8.33 3.3,11.32 1.98,2.84 4.42,4.43 7.51,4.43 l 0,1.1 c -3.04,0 -6.28,-0.8 -10.15,-4.69 -4.14,-4.13 -4.49,-8.77 -4.49,-10.31 0,-3.08 2.19,-8.86 9.16,-8.86 11.86,0 17.04,16.73 17.04,23.86 0,7.92 -4.64,12.9 -10.76,12.9 -7.22,0 -9.52,-6.47 -9.52,-7.87 0,-0.69 0.39,-1.74 1.89,-1.74 1.65,0 2.69,1.49 2.69,2.64 0,1.74 -1.54,1.74 -2.34,1.74 2.2,3.69 5.73,3.98 7.19,3.98 3.62,0 7.12,-2.59 7.12,-9.01 0,-1.94 -0.31,-4.49 -1.36,-8.52 z"
           inkscape:connector-curvature="0"
           style="fill:#000000;stroke-width:0" /><path
           id="path4011"
           d="m 855.9,352.64 3.55,0 c 0.65,0 1.1,0 1.1,0.77 0,0.48 -0.45,0.48 -1.03,0.48 l -3.31,0 1.28,5.16 c 0.03,0.17 0.11,0.34 0.11,0.49 0,0.64 -0.48,1.12 -1.19,1.12 -0.87,0 -1.39,-0.59 -1.64,-1.5 -0.23,-0.87 0.22,0.8 -1.32,-5.27 l -3.55,0 c -0.66,0 -1.11,0 -1.11,-0.76 0,-0.49 0.41,-0.49 1.05,-0.49 l 3.29,0 -2.04,-8.21 c -0.22,-0.88 -0.54,-2.13 -0.54,-2.58 0,-2.06 1.75,-3.31 3.74,-3.31 3.87,0 6.06,4.87 6.06,5.32 0,0.46 -0.45,0.46 -0.56,0.46 -0.41,0 -0.45,-0.08 -0.72,-0.66 -0.98,-2.2 -2.77,-4.16 -4.67,-4.16 -0.74,0 -1.22,0.46 -1.22,1.71 0,0.36 0.14,1.09 0.2,1.43 z"
           inkscape:connector-curvature="0"
           style="fill:#000000;stroke-width:0" /><path
           id="path4013"
           d="m 886.6,379.82 0.01,0 0,0.01 0,0 0,0.01 0,0.01 0,0.01 0,0.01 0,0.01 0.01,0.02 0,0.02 0,0.02 0.01,0.03 0.01,0.02 0,0.03 0.01,0.03 0,0.02 0.01,0.03 0.01,0.03 0.01,0.06 0.02,0.06 0.01,0.03 0,0.03 0.01,0.02 0.01,0.03 0,0.02 0.01,0.03 0,0.02 0.01,0.02 0,0.01 0,0 0,0.01 0.01,0.01 0,0.01 0,0 0,0.01 0,0.01 0,0 0,0 0,0.01 0,0 c 0,0.05 0,0.5 -0.59,0.5 -0.5,0 -0.55,-0.16 -0.75,-1 l -2.89,-11.5 c -7.93,-0.25 -15.25,-6.88 -15.25,-13.66 0,-4.73 3.48,-8.67 9.56,-9.01 l 0.25,1.09 c -2.99,0.14 -6.58,1.89 -6.58,6.88 0,5.98 4.3,12.95 11.72,13.59 l -5.14,-20.47 -0.25,-1.09 c -0.39,-1.55 -0.74,-3.14 -1.14,-4.69 -0.6,-2.34 -1.1,-4.23 -1.1,-4.39 0,-0.48 0.35,-0.55 0.6,-0.55 0.25,0 0.36,0.07 0.5,0.21 0.09,0.09 0.4,1.29 0.55,2 l 1.89,7.42 0.25,1.09 5.14,20.47 c 3.78,-0.19 6.62,-2.48 6.62,-6.87 0,-5.88 -4.28,-13 -11.76,-13.6 l -0.25,-1.09 c 8.03,0.25 15.25,6.97 15.25,13.64 0,3.94 -2.64,8.53 -9.57,9.03 z"
           inkscape:connector-curvature="0"
           style="fill:#000000;stroke-width:0" /><path
           id="path4015"
           d="m 942.63,362.74 0.14,0 0.15,0 0.14,0 0.07,0.01 0.08,0 0.07,0.01 0.07,0.01 0.07,0.01 0.07,0.01 0.07,0.01 0.06,0.02 0.07,0.02 0.06,0.02 0.06,0.03 0.06,0.02 0.06,0.03 0.05,0.04 0.05,0.04 0.05,0.04 0.04,0.04 0.04,0.05 0.02,0.03 0.02,0.03 0.01,0.03 0.02,0.03 0.01,0.03 0.01,0.03 0.02,0.03 0.01,0.04 0.01,0.03 0.01,0.04 0,0.04 0.01,0.04 0,0.04 0.01,0.04 0,0.05 0,0.04 c 0,1 -0.95,1 -1.64,1 l -29.84,0 c -0.71,0 -1.64,0 -1.64,-1 0,-0.98 0.93,-0.98 1.68,-0.98 z"
           inkscape:connector-curvature="0"
           style="fill:#000000;stroke-width:0" /><path
           id="path4017"
           d="m 942.68,353.07 0.07,0 0.06,0 0.14,0 0.14,0 0.07,0.01 0.07,0 0.07,0.01 0.06,0.01 0.07,0.01 0.07,0.01 0.07,0.01 0.06,0.02 0.07,0.02 0.06,0.02 0.06,0.03 0.05,0.02 0.06,0.04 0.05,0.03 0.05,0.04 0.05,0.04 0.04,0.05 0.02,0.02 0.02,0.03 0.02,0.02 0.02,0.03 0.01,0.03 0.02,0.03 0.01,0.03 0.01,0.04 0.02,0.03 0.01,0.04 0.01,0.03 0.01,0.04 0,0.04 0.01,0.04 0,0.04 0.01,0.05 0,0.04 0,0.05 c 0,1 -0.95,1 -1.69,1 l -29.75,0 c -0.75,0 -1.68,0 -1.68,-1 0,-1 0.93,-1 1.64,-1 z"
           inkscape:connector-curvature="0"
           style="fill:#000000;stroke-width:0" /><path
           id="path4019"
           d="m 993.78,357.89 0.16,0.01 0.16,0 0.16,0 0.07,0.01 0.08,0 0.08,0.01 0.07,0.01 0.07,0.01 0.08,0.01 0.07,0.01 0.06,0.02 0.07,0.02 0.06,0.02 0.06,0.02 0.06,0.03 0.06,0.03 0.05,0.04 0.05,0.04 0.05,0.04 0.04,0.05 0.04,0.05 0.01,0.02 0.02,0.03 0.02,0.03 0.01,0.03 0.02,0.03 0.01,0.04 0.01,0.03 0.01,0.03 0.01,0.04 0.01,0.04 0,0.04 0.01,0.04 0.01,0.04 0,0.04 0,0.05 0,0.04 c 0,1 -0.91,1 -1.75,1 l -26.95,0 c -0.85,0 -1.74,0 -1.74,-1 0,-1 0.89,-1 1.74,-1 z"
           inkscape:connector-curvature="0"
           style="fill:#000000;stroke-width:0" /><path
           id="path4021"
           d="m 1007.6,350.33 0,-0.18 -0.1,-0.17 0,-0.16 0,-0.15 -0.1,-0.14 0,-0.14 -0.1,-0.13 0,-0.12 -0.1,-0.11 0,-0.11 -0.1,-0.1 -0.1,-0.09 -0.1,-0.08 0,-0.08 -0.1,-0.08 -0.1,-0.06 -0.2,-0.06 -0.1,-0.06 -0.1,-0.05 -0.2,-0.05 -0.1,-0.04 -0.1,-0.01 -0.1,-0.02 -0.1,-0.02 -0.1,-0.01 -0.1,-0.02 -0.1,-0.01 -0.1,-0.01 -0.1,-0.01 -0.1,-0.01 -0.2,-0.01 -0.1,-0.01 -0.1,-0.01 -0.2,-0.01 -0.1,0 -0.1,-0.01 -0.2,0 -0.1,0 -0.2,-0.01 -0.2,0 -0.1,0 -0.2,0 -0.2,0 c -0.8,0 -1.4,0 -1.4,-0.95 0,-0.6 0.5,-0.6 1.4,-0.6 l 16.5,0 -0.9,1.55 -5.6,0 c -0.7,0 -0.8,0 -1.1,0.05 -0.5,0.04 -0.7,0.09 -0.7,0.5 0,0.14 0,0.25 0.3,1.14 l 6.8,27.36 c 0.4,1.73 0.6,1.89 2.7,1.89 l 5.3,0 c 4.9,0 9,-2.64 9,-9.22 0,-2.44 -1,-10.61 -5.2,-16.1 -1.4,-1.84 -5.4,-5.62 -11.5,-5.62 l 0.9,-1.55 c 10.3,0 20.2,10.52 20.2,21.42 0,7.03 -4.3,12.61 -11.7,12.61 l -16.8,0 c -0.9,0 -1.5,0 -1.5,-0.95 0,-0.59 0.5,-0.59 1.5,-0.59 0.6,0 1.5,-0.05 2.1,-0.1 0.8,-0.11 1.1,-0.25 1.1,-0.79 0,-0.21 0,-0.36 -0.2,-0.96 z"
           inkscape:connector-curvature="0"
           style="fill:#000000;stroke-width:0" /><path
           id="path4023"
           d="m 1076.3,314.55 0,-0.01 0,0 0,0 0,-0.01 0,0 0,-0.01 0,0 0,-0.01 0,-0.01 0,0 0,-0.02 0.1,-0.02 0,-0.02 0,-0.02 0,-0.02 0,-0.02 0.1,-0.03 0,-0.02 0,-0.03 0.1,-0.04 0,-0.03 0,-0.02 0,-0.03 0.1,-0.02 0,-0.02 0,-0.02 0,-0.02 0,-0.02 0.1,-0.02 0,-0.01 0,-0.01 0,-0.01 0,0 0,-0.01 0,0 0,-0.01 0,0 0,0 0,-0.01 0,0 0,0 0,0 1.2,0 c 0.1,0 0.5,0.05 0.5,0.5 0,0.2 -0.1,0.3 -0.2,0.45 -1.8,1.8 -4.5,4.53 -7.6,10.02 -5.4,9.56 -7.4,21.87 -7.4,33.83 0,22.12 6.3,35.12 15,43.93 0.2,0.16 0.2,0.3 0.2,0.41 0,0.5 -0.3,0.5 -0.9,0.5 -0.7,0 -0.8,0 -1.3,-0.41 -4.7,-4.07 -10,-11.01 -13.5,-21.51 -2.1,-6.58 -3.2,-14.61 -3.2,-22.88 0,-11.81 2.1,-25.15 9.9,-36.72 1.4,-1.93 3.2,-3.98 3.2,-4.03 0.5,-0.59 1.2,-1.4 1.6,-1.75 z"
           inkscape:connector-curvature="0"
           style="fill:#000000;stroke-width:0" /><path
           id="path4025"
           d="m 1113.2,357.89 0.1,0.01 0.2,0 0.2,0 0,0.01 0.1,0 0.1,0.01 0.1,0.01 0,0.01 0.1,0.01 0.1,0.01 0.1,0.02 0,0.02 0.1,0.02 0,0.02 0.1,0.03 0.1,0.03 0,0.04 0.1,0.04 0,0.04 0,0.05 0.1,0.05 0,0.02 0,0.03 0,0.03 0.1,0.03 0,0.03 0,0.04 0,0.03 0,0.03 0,0.04 0,0.04 0,0.04 0,0.04 0,0.04 0,0.04 0,0.05 0,0.04 c 0,1 -0.9,1 -1.7,1 l -27,0 c -0.8,0 -1.7,0 -1.7,-1 0,-1 0.9,-1 1.7,-1 z"
           inkscape:connector-curvature="0"
           style="fill:#000000;stroke-width:0" /><path
           id="path4027"
           d="m 1164.8,374.69 0.2,0.41 0.3,0.39 0.2,0.38 0.3,0.37 0.1,0.18 0.1,0.17 0.1,0.17 0.2,0.17 0.1,0.16 0.2,0.15 0.1,0.15 0.2,0.15 0.1,0.13 0.2,0.14 0.2,0.12 0.2,0.12 0.2,0.12 0.1,0.1 0.2,0.1 0.3,0.1 0.2,0.08 0.2,0.08 0.2,0.07 0.3,0.06 0.2,0.06 0.3,0.04 0.3,0.04 0.3,0.03 c 0.4,0.04 0.9,0.04 0.9,1 0,0.18 -0.2,0.54 -0.6,0.54 -1.2,0 -2.5,-0.15 -3.8,-0.15 -1.7,0 -3.6,0.15 -5.2,0.15 -0.3,0 -0.9,0 -0.9,-0.95 0,-0.55 0.4,-0.59 0.7,-0.59 1.2,-0.05 3,-0.46 3,-1.94 0,-0.55 -0.3,-0.95 -0.7,-1.66 l -13.5,-23.45 -1.8,24.7 c 0,1 -0.1,2.3 3.5,2.35 0.8,0 1.3,0 1.3,1 0,0.5 -0.5,0.54 -0.7,0.54 -2,0 -4.1,-0.15 -6.1,-0.15 -1.1,0 -4.1,0.15 -5.2,0.15 -0.3,0 -1,0 -1,-1 0,-0.54 0.5,-0.54 1.2,-0.54 2.2,0 2.6,-0.3 2.7,-1.25 l 0.3,-3.83 -12.6,-21.97 -1.9,25.25 c 0,0.59 0,1.75 3.8,1.8 0.5,0 1,0 1,1 0,0.54 -0.6,0.54 -0.7,0.54 -2,0 -4.1,-0.15 -6.1,-0.15 -1.8,0 -3.6,0.15 -5.2,0.15 -0.3,0 -1,0 -1,-0.95 0,-0.59 0.5,-0.59 1.3,-0.59 2.5,0 2.6,-0.46 2.6,-1.85 l 2.3,-30.44 c 0,-0.9 0.1,-1.29 0.8,-1.29 0.6,0 0.7,0.29 1.2,1.04 l 14.6,25.41 1.9,-25.16 c 0.1,-1.04 0.2,-1.29 0.8,-1.29 0.6,0 0.9,0.5 1.2,0.94 z"
           inkscape:connector-curvature="0"
           style="fill:#000000;stroke-width:0" /><path
           id="path4029"
           d="m 1212,379.38 0,0.01 0,0.02 0,0.01 0,0.02 0,0.02 0,0.02 0,0.02 0.1,0.02 0,0.02 0,0.02 0,0.03 0,0.02 0,0.05 0,0.05 0.1,0.04 0,0.05 0,0.03 0,0.02 0,0.03 0,0.02 0,0.02 0,0.03 0,0.02 0,0.02 0,0.02 0,0.02 0,0.02 0,0.02 c 0,0.36 0,0.4 -1.2,0.4 l -34.3,0 c -1.2,0 -1.2,-0.04 -1.2,-0.4 0,-0.19 0.1,-0.55 0.2,-0.69 l 16.8,-33.64 c 0.3,-0.64 0.5,-0.94 1.3,-0.94 0.9,0 1,0.3 1.4,0.94 l 0.1,3.75 -13.7,27.39 27.4,0 -13.7,-27.39 -0.1,-3.75 z"
           inkscape:connector-curvature="0"
           style="fill:#000000;stroke-width:0" /><path
           id="path4031"
           d="m 1232.2,373.3 -1.1,0 c -0.2,-0.76 -0.5,-2.82 -1,-3.17 -0.2,-0.2 -2.9,-0.2 -3.4,-0.2 l -6.4,0 c 3.6,3.23 4.9,4.2 6.9,5.84 2.6,2.07 5,4.22 5,7.53 0,4.22 -3.6,6.8 -8.1,6.8 -4.3,0 -7.3,-3.03 -7.3,-6.23 0,-1.78 1.5,-1.96 1.9,-1.96 0.8,0 1.8,0.6 1.8,1.85 0,0.62 -0.2,1.84 -2,1.84 1.1,2.47 3.4,3.24 5.1,3.24 3.5,0 5.3,-2.71 5.3,-5.54 0,-3.03 -2.2,-5.43 -3.3,-6.68 l -8.4,-8.3 c -0.4,-0.31 -0.4,-0.39 -0.4,-1.36 l 14.4,0 z"
           inkscape:connector-curvature="0"
           style="fill:#000000;stroke-width:0" /><path
           id="path4033"
           d="m 1258.7,379.82 0,0 0,0.01 0,0 0,0.01 0,0.01 0,0.01 0,0.01 0,0.01 0,0.02 0,0.02 0,0.02 0.1,0.03 0,0.02 0,0.03 0,0.03 0,0.02 0,0.03 0,0.03 0,0.06 0,0.06 0,0.03 0,0.03 0,0.02 0,0.03 0.1,0.02 0,0.03 0,0.02 0,0.02 0,0.01 0,0.01 0,0.01 0,0.01 0,0 0,0.01 0,0.01 0,0 0,0 0,0.01 0,0 c 0,0.05 0,0.5 -0.6,0.5 -0.5,0 -0.6,-0.16 -0.8,-1 l -2.8,-11.5 c -8,-0.25 -15.3,-6.88 -15.3,-13.66 0,-4.73 3.5,-8.67 9.6,-9.01 l 0.2,1.09 c -3,0.14 -6.6,1.89 -6.6,6.88 0,5.98 4.3,12.95 11.7,13.59 l -5.1,-20.47 -0.2,-1.09 c -0.4,-1.55 -0.8,-3.14 -1.2,-4.69 -0.6,-2.34 -1.1,-4.23 -1.1,-4.39 0,-0.48 0.4,-0.55 0.6,-0.55 0.3,0 0.4,0.07 0.5,0.21 0.1,0.09 0.4,1.29 0.6,2 l 1.9,7.42 0.2,1.09 5.2,20.47 c 3.7,-0.19 6.6,-2.48 6.6,-6.87 0,-5.88 -4.3,-13 -11.8,-13.6 l -0.2,-1.09 c 8,0.25 15.2,6.97 15.2,13.64 0,3.94 -2.6,8.53 -9.6,9.03 z"
           inkscape:connector-curvature="0"
           style="fill:#000000;stroke-width:0" /><path
           id="path4035"
           d="m 1298,357.89 13.9,0 c 0.7,0 1.7,0 1.7,1 0,1 -1,1 -1.7,1 l -13.9,0 0,13.96 c 0,0.69 0,1.64 -1,1.64 -1,0 -1,-0.95 -1,-1.64 l 0,-13.96 -13.9,0 c -0.7,0 -1.7,0 -1.7,-1 0,-1 1,-1 1.7,-1 l 13.9,0 0,-13.93 c 0,-0.71 0,-1.66 1,-1.66 1,0 1,0.95 1,1.66 z"
           inkscape:connector-curvature="0"
           style="fill:#000000;stroke-width:0" /><path
           id="path4037"
           d="m 1331.9,349.38 0,-0.07 0,-0.08 0,-0.07 0,-0.08 -0.1,-0.16 0,-0.16 0,-0.16 -0.1,-0.16 0,-0.16 0,-0.16 -0.1,-0.08 0,-0.07 0,-0.07 0,-0.07 0,-0.07 0,-0.07 0,-0.06 -0.1,-0.06 0,-0.05 0,-0.06 0,-0.04 0,-0.05 0,-0.04 0,-0.03 0,-0.04 0,-0.02 c 0,-0.89 0.7,-1.35 1.4,-1.35 0.6,0 1.5,0.4 1.9,1.4 0.1,0.2 1.8,6.98 2,7.87 0.4,1.64 1.3,5.13 1.6,6.48 0.2,0.65 1.6,2.99 2.8,4.08 0.4,0.35 1.8,1.64 4,1.64 1.2,0 2,-0.59 2,-0.59 -1.5,-0.25 -2.5,-1.45 -2.5,-2.73 0,-0.8 0.5,-1.75 1.8,-1.75 1.4,0 2.8,1.14 2.8,2.93 0,1.75 -1.6,3.24 -4.1,3.24 -3.3,0 -5.5,-2.44 -6.4,-3.83 -0.4,2.23 -2.2,3.83 -4.6,3.83 -2.3,0 -3.2,-1.94 -3.7,-2.83 -0.8,-1.7 -1.5,-4.69 -1.5,-4.84 0,-0.5 0.5,-0.5 0.6,-0.5 0.5,0 0.6,0.06 0.8,1.15 0.9,3.53 1.9,5.92 3.7,5.92 0.8,0 1.5,-0.39 1.5,-2.28 0,-1.04 -0.1,-1.61 -0.8,-4.19 z"
           inkscape:connector-curvature="0"
           style="fill:#000000;stroke-width:0" /><path
           id="path4039"
           d="m 1373.2,379.82 0,0 0,0.01 0,0 0,0.01 0,0.01 0,0.01 0,0.01 0,0.01 0,0.02 0,0.02 0,0.02 0,0.03 0,0.02 0,0.03 0,0.03 0.1,0.02 0,0.03 0,0.03 0,0.06 0,0.06 0,0.03 0,0.03 0,0.02 0,0.03 0,0.02 0,0.03 0,0.02 0,0.02 0,0.01 0,0 0.1,0.01 0,0.01 0,0.01 0,0 0,0.01 0,0.01 0,0 0,0 0,0.01 0,0 c 0,0.05 0,0.5 -0.6,0.5 -0.5,0 -0.6,-0.16 -0.8,-1 l -2.9,-11.5 c -7.9,-0.25 -15.2,-6.88 -15.2,-13.66 0,-4.73 3.5,-8.67 9.5,-9.01 l 0.3,1.09 c -3,0.14 -6.6,1.89 -6.6,6.88 0,5.98 4.3,12.95 11.7,13.59 l -5.1,-20.47 -0.3,-1.09 c -0.4,-1.55 -0.7,-3.14 -1.1,-4.69 -0.6,-2.34 -1.1,-4.23 -1.1,-4.39 0,-0.48 0.3,-0.55 0.6,-0.55 0.2,0 0.4,0.07 0.5,0.21 0.1,0.09 0.4,1.29 0.5,2 l 1.9,7.42 0.3,1.09 5.1,20.47 c 3.8,-0.19 6.7,-2.48 6.7,-6.87 0,-5.88 -4.3,-13 -11.8,-13.6 l -0.3,-1.09 c 8.1,0.25 15.3,6.97 15.3,13.64 0,3.94 -2.7,8.53 -9.6,9.03 z"
           inkscape:connector-curvature="0"
           style="fill:#000000;stroke-width:0" /><path
           id="path4041"
           d="m 1412.5,357.89 13.9,0 c 0.7,0 1.6,0 1.6,1 0,1 -0.9,1 -1.6,1 l -13.9,0 0,13.96 c 0,0.69 0,1.64 -1,1.64 -1,0 -1,-0.95 -1,-1.64 l 0,-13.96 -13.9,0 c -0.8,0 -1.7,0 -1.7,-1 0,-1 0.9,-1 1.7,-1 l 13.9,0 0,-13.93 c 0,-0.71 0,-1.66 1,-1.66 1,0 1,0.95 1,1.66 z"
           inkscape:connector-curvature="0"
           style="fill:#000000;stroke-width:0" /><path
           id="path4043"
           d="m 1470.4,382.96 0.1,-0.19 0,-0.19 0.1,-0.18 0.1,-0.17 0,-0.18 0.1,-0.16 0.1,-0.16 0.1,-0.16 0.1,-0.15 0.1,-0.15 0.2,-0.14 0.1,-0.13 0.1,-0.13 0.1,-0.12 0.2,-0.12 0.1,-0.11 0.2,-0.11 0.1,-0.1 0.2,-0.09 0.1,-0.09 0.2,-0.08 0.2,-0.07 0.1,-0.07 0.2,-0.06 0.2,-0.06 0.2,-0.04 0.2,-0.04 0.2,-0.04 0.1,-0.02 0.2,-0.02 0.2,-0.01 0.2,-0.01 c 1.8,0 2.9,1.14 3.7,2.74 0.9,1.79 1.5,4.84 1.5,4.94 0,0.5 -0.4,0.5 -0.6,0.5 -0.5,0 -0.5,-0.21 -0.7,-0.91 -0.7,-2.78 -1.6,-6.17 -3.7,-6.17 -1.1,0 -1.6,0.65 -1.6,2.29 0,1.1 0.6,3.44 1,5.18 l 1.4,5.39 c 0.2,0.75 0.7,2.64 0.9,3.39 0.2,1.14 0.7,3.03 0.7,3.33 0,0.9 -0.7,1.34 -1.4,1.34 -0.3,0 -1.6,-0.05 -2,-1.74 -0.9,-3.64 -3.1,-12.35 -3.7,-15 -0.1,-0.2 -2,-4.18 -5.7,-4.18 -2.6,0 -3.1,2.25 -3.1,4.09 0,2.78 1.4,6.72 2.7,10.16 0.6,1.5 0.9,2.18 0.9,3.14 0,2.23 -1.6,4.08 -4.1,4.08 -4.8,0 -6.6,-7.22 -6.6,-7.68 0,-0.5 0.5,-0.5 0.6,-0.5 0.5,0 0.6,0.11 0.8,0.91 1.2,4.33 3.1,6.17 5,6.17 0.5,0 1.3,-0.04 1.3,-1.64 0,-1.2 -0.6,-2.64 -0.9,-3.39 -1.8,-4.94 -2.9,-8.01 -2.9,-10.45 0,-4.74 3.5,-5.99 6.2,-5.99 3.3,0 5.1,2.24 5.9,3.35 z"
           inkscape:connector-curvature="0"
           style="fill:#000000;stroke-width:0" /><polyline
           id="polyline4045"
           points="1448,358 1486.8,358 1486.8,360.04 1448,360.04 "
           style="fill:#000000;fill-rule:nonzero;stroke-width:0" /><path
           id="path4047"
           d="m 1462.4,329.77 0.4,0.13 0.3,0.15 0.4,0.15 0.3,0.17 0.4,0.18 0.3,0.19 0.4,0.2 0.3,0.21 0.3,0.23 0.3,0.23 0.3,0.24 0.3,0.25 0.2,0.26 0.3,0.27 0.2,0.27 0.3,0.29 0.2,0.29 0.2,0.3 0.2,0.3 0.2,0.32 0.2,0.32 0.1,0.32 0.2,0.33 0.1,0.34 0.1,0.34 0.1,0.34 0.1,0.35 0.1,0.36 0.1,0.36 0,0.36 0,0.36 0,0.37 c 0,4.08 -4.4,6.88 -9.1,6.88 -5.1,0 -8.8,-3 -8.8,-6.79 0,-1.64 1,-2.59 2.5,-2.59 1.5,0 2.5,1.09 2.5,2.55 0,2.48 -2.3,2.48 -3,2.48 1.5,2.44 4.8,3.1 6.6,3.1 2,0 4.8,-1.1 4.8,-5.58 0,-0.61 -0.1,-3.49 -1.4,-5.69 -1.5,-2.39 -3.2,-2.53 -4.5,-2.59 -0.4,-0.05 -1.6,-0.14 -1.9,-0.14 -0.4,-0.05 -0.8,-0.1 -0.8,-0.6 0,-0.54 0.4,-0.54 1.2,-0.54 l 2.2,0 c 4.1,0 6,-3.4 6,-8.29 0,-6.76 -3.5,-8.21 -5.7,-8.21 -2.1,0 -5.8,0.84 -7.6,3.78 1.8,-0.24 3.3,0.86 3.3,2.75 0,1.79 -1.4,2.78 -2.8,2.78 -1.2,0 -2.8,-0.69 -2.8,-2.89 0,-4.53 4.6,-7.82 10.1,-7.82 6.1,0 10.6,4.54 10.6,9.61 0,4.1 -3.1,7.97 -8.3,9.02 z"
           inkscape:connector-curvature="0"
           style="fill:#000000;stroke-width:0" /><path
           id="path4049"
           d="m 1480.5,322.64 1.9,22.72 c 0,1.66 -1.3,2.55 -2.6,2.55 -1.3,0 -2.6,-0.89 -2.6,-2.55 l 1.9,-22.65 c 0.1,-0.75 0.1,-1.16 0.7,-1.16 0.5,0 0.7,0.25 0.7,1.09 z"
           inkscape:connector-curvature="0"
           style="fill:#000000;stroke-width:0" /><path
           id="path4051"
           d="m 1482.4,314.88 0,0.13 0,0.14 0,0.13 0,0.13 0,0.12 -0.1,0.13 0,0.12 -0.1,0.12 0,0.11 -0.1,0.12 0,0.11 -0.1,0.11 -0.1,0.1 -0.1,0.1 0,0.1 -0.1,0.09 -0.1,0.09 -0.1,0.08 -0.1,0.08 -0.1,0.07 -0.1,0.07 -0.1,0.07 -0.2,0.06 -0.1,0.05 -0.1,0.05 -0.1,0.04 -0.1,0.04 -0.2,0.03 -0.1,0.02 -0.1,0.02 -0.2,0.01 -0.1,0 c -1.4,0 -2.6,-1.2 -2.6,-2.64 0,-1.44 1.2,-2.64 2.6,-2.64 1.4,0 2.6,1.2 2.6,2.64 z"
           inkscape:connector-curvature="0"
           style="fill:#000000;stroke-width:0" /><path
           id="path4053"
           d="m 1514.4,379.82 0.1,0 0,0.01 0,0 0,0.01 0,0.01 0,0.01 0,0.01 0,0.01 0,0.02 0,0.02 0,0.02 0,0.03 0,0.02 0,0.03 0,0.03 0,0.02 0,0.03 0,0.03 0,0.06 0,0.06 0,0.03 0.1,0.03 0,0.02 0,0.03 0,0.02 0,0.03 0,0.02 0,0.02 0,0.01 0,0.01 0,0.01 0,0.01 0,0 0,0.01 0,0.01 0,0 0,0 0,0.01 0,0 c 0,0.05 0,0.5 -0.6,0.5 -0.5,0 -0.5,-0.16 -0.7,-1 l -2.9,-11.5 c -8,-0.25 -15.3,-6.88 -15.3,-13.66 0,-4.73 3.5,-8.67 9.6,-9.01 l 0.2,1.09 c -3,0.14 -6.6,1.89 -6.6,6.88 0,5.98 4.4,12.95 11.8,13.59 l -5.2,-20.47 -0.2,-1.09 c -0.4,-1.55 -0.8,-3.14 -1.2,-4.69 -0.6,-2.34 -1.1,-4.23 -1.1,-4.39 0,-0.48 0.4,-0.55 0.6,-0.55 0.3,0 0.4,0.07 0.5,0.21 0.1,0.09 0.4,1.29 0.6,2 l 1.9,7.42 0.2,1.09 5.2,20.47 c 3.8,-0.19 6.6,-2.48 6.6,-6.87 0,-5.88 -4.3,-13 -11.8,-13.6 l -0.2,-1.09 c 8,0.25 15.2,6.97 15.2,13.64 0,3.94 -2.6,8.53 -9.5,9.03 z"
           inkscape:connector-curvature="0"
           style="fill:#000000;stroke-width:0" /><path
           id="path4055"
           d="m 1531.8,378.6 0.3,0 0.2,-0.02 0.3,-0.03 0.2,-0.04 0.3,-0.05 0.2,-0.06 0.2,-0.07 0.2,-0.08 0.2,-0.1 0.2,-0.1 0.2,-0.12 0.2,-0.12 0.2,-0.14 0.2,-0.15 0.1,-0.16 0.2,-0.17 0.1,-0.18 0.2,-0.19 0.1,-0.2 0.1,-0.22 0.2,-0.22 0.1,-0.24 0.1,-0.25 0.1,-0.25 0,-0.27 0.1,-0.28 0.1,-0.29 0,-0.3 0.1,-0.31 0,-0.32 0,-0.33 0,-0.35 c 0,-4.33 -2.5,-5.61 -4.5,-5.61 -1.4,0 -4.5,0.38 -5.9,2.44 1.6,0.06 2,1.22 2,1.95 0,1.11 -0.9,1.91 -1.9,1.91 -1,0 -2,-0.59 -2,-2.02 0,-3.28 3.6,-5.4 7.8,-5.4 4.9,0 8.2,3.25 8.2,6.73 0,2.72 -2.2,5.44 -6,6.24 3.6,1.32 5,3.93 5,6.06 0,2.75 -3.2,4.81 -7.1,4.81 -3.9,0 -6.8,-1.89 -6.8,-4.67 0,-1.19 0.8,-1.84 1.8,-1.84 1.1,0 1.8,0.79 1.8,1.76 0,1.02 -0.7,1.75 -1.8,1.81 1.2,1.55 3.6,1.93 4.9,1.93 1.6,0 3.8,-0.77 3.8,-3.8 0,-1.47 -0.5,-3.06 -1.4,-4.14 -1.2,-1.33 -2.1,-1.41 -3.9,-1.5 -0.9,-0.08 -0.9,-0.08 -1.1,-0.11 -0.1,0 -0.4,-0.06 -0.4,-0.45 0,-0.49 0.3,-0.49 0.9,-0.49 z"
           inkscape:connector-curvature="0"
           style="fill:#000000;stroke-width:0" /><path
           id="path4057"
           d="m 1565.4,358.84 -0.1,2.69 -0.1,2.71 -0.2,2.71 -0.3,2.71 -0.4,2.7 -0.5,2.69 -0.6,2.67 -0.7,2.64 -0.9,2.6 -0.4,1.28 -0.5,1.27 -0.5,1.27 -0.6,1.24 -0.6,1.23 -0.6,1.22 -0.6,1.2 -0.7,1.19 -0.7,1.16 -0.8,1.15 -0.8,1.12 -0.8,1.11 -0.9,1.09 -0.9,1.06 c -0.7,0.79 -2.5,2.73 -3.7,3.78 -0.4,0.31 -0.5,0.31 -1.1,0.31 -0.5,0 -1,0 -1,-0.5 0,-0.2 0.2,-0.41 0.3,-0.5 1.7,-1.75 4.4,-4.48 7.5,-9.97 5.4,-9.56 7.4,-21.87 7.4,-33.83 0,-21.62 -6,-34.82 -15,-43.93 -0.1,-0.11 -0.2,-0.25 -0.2,-0.41 0,-0.5 0.5,-0.5 1,-0.5 0.6,0 0.7,0 1.2,0.41 4.7,4.07 10,11 13.5,21.51 2.2,6.83 3.3,14.91 3.3,22.92 z"
           inkscape:connector-curvature="0"
           style="fill:#000000;stroke-width:0" /><path
           id="path4059"
           d="m 1605.8,357.89 13.9,0 c 0.7,0 1.7,0 1.7,1 0,1 -1,1 -1.7,1 l -13.9,0 0,13.96 c 0,0.69 0,1.64 -1,1.64 -1,0 -1,-0.95 -1,-1.64 l 0,-13.96 -13.9,0 c -0.7,0 -1.7,0 -1.7,-1 0,-1 1,-1 1.7,-1 l 13.9,0 0,-13.93 c 0,-0.71 0,-1.66 1,-1.66 1,0 1,0.95 1,1.66 z"
           inkscape:connector-curvature="0"
           style="fill:#000000;stroke-width:0" /><path
           id="path4061"
           d="m 1642.9,361.69 -0.5,-0.34 -0.5,-0.34 -0.4,-0.36 -0.4,-0.35 -0.4,-0.36 -0.4,-0.36 -0.4,-0.36 -0.3,-0.37 -0.3,-0.36 -0.3,-0.37 -0.3,-0.36 -0.2,-0.36 -0.3,-0.36 -0.2,-0.36 -0.2,-0.35 -0.2,-0.35 -0.2,-0.34 -0.1,-0.34 -0.2,-0.33 -0.1,-0.32 -0.1,-0.32 -0.1,-0.3 -0.1,-0.3 -0.1,-0.28 0,-0.28 -0.1,-0.26 0,-0.25 -0.1,-0.23 0,-0.23 0,-0.2 0,-0.2 0,-0.17 c 0,-2.39 1.3,-3.8 1.4,-3.94 1.6,-1.65 2.1,-1.84 5.8,-3.25 l 6,-2.33 c 0.8,-0.36 1.8,-0.7 1.8,-2.15 0,-1.14 -0.9,-2.64 -2.5,-2.64 -2.1,0 -3.8,1.2 -4.3,1.61 -0.4,0.18 -0.4,0.23 -0.6,0.23 -0.4,0 -0.5,-0.34 -0.5,-0.55 0,-0.59 2.6,-2.39 5.4,-2.39 3.1,0 5.2,2.89 5.2,5.35 0,2.39 -1.8,3.28 -2.4,3.53 -0.7,0.25 -2.4,0.89 -3,1.14 -1,0.4 -2,0.8 -3.1,1.15 l -2.9,1.19 c -2.3,0.91 -3.8,2.35 -3.8,4.44 0,2.05 2,6.37 6.2,8.47 1.8,-0.66 3.3,-0.66 4.3,-0.66 1.5,0 4.7,0 4.7,1.55 0,1.25 -2.2,1.34 -4.1,1.34 l -0.1,-1.09 c 1.8,0 2,-0.05 2.9,-0.3 -0.4,-0.2 -0.9,-0.39 -3.2,-0.39 -1.2,0 -1.6,0 -2.5,0.39 l 0,0 c 1.1,0.3 2.2,0.3 2.8,0.3 l 0.1,1.09 c -0.9,0 -2.4,0 -4.2,-0.59 -1.3,1.3 -1.5,2.94 -1.5,3.89 0,2.78 1.8,6.62 5.5,8.47 0.9,-1.1 2.1,-1.1 3.2,-1.1 l 0.1,1.1 c -1,0 -1.6,0 -2.1,0.45 l 0,0 c 0.8,0.25 1.8,0.25 2.4,0.25 1.7,0 1.9,-0.06 2.8,-0.31 -0.4,-0.14 -0.9,-0.39 -3.1,-0.39 l -0.1,-1.1 c 1.3,0 4.5,0 4.5,1.55 0,1.3 -2.2,1.35 -4.2,1.35 -0.6,0 -1.8,0 -3.1,-0.25 -0.2,0.43 -0.3,0.79 -0.3,1.64 0,0.7 0.3,1.75 0.3,1.84 0,0.39 -0.3,0.64 -0.6,0.64 -0.9,0 -0.9,-2.28 -0.9,-2.44 0,-1 0.3,-1.73 0.3,-1.93 -5.3,-1.5 -8.7,-5.49 -8.7,-9.32 0,-1.84 0.9,-3.93 3.3,-5.28 z"
           inkscape:connector-curvature="0"
           style="fill:#000000;stroke-width:0" /></g>    </g>
  </g>
</svg>
